<mxfile host="app.diagrams.net" modified="2024-06-12T20:33:33.609Z" agent="Mozilla/5.0 (Windows NT 10.0; Win64; x64) AppleWebKit/537.36 (KHTML, like Gecko) Chrome/125.0.0.0 Safari/537.36" etag="EjH---AlNF8N62RTid5G" version="24.5.4" type="github">
  <diagram name="Page-1" id="dloL-6Ph129pZOuakGDp">
    <mxGraphModel dx="1434" dy="778" grid="1" gridSize="10" guides="1" tooltips="1" connect="1" arrows="1" fold="1" page="1" pageScale="1" pageWidth="850" pageHeight="1100" math="0" shadow="0">
      <root>
        <mxCell id="0" />
        <mxCell id="1" parent="0" />
        <mxCell id="hW3wx3vpGXbbpo8IUKIQ-21" style="edgeStyle=orthogonalEdgeStyle;rounded=0;orthogonalLoop=1;jettySize=auto;html=1;exitX=0.25;exitY=1;exitDx=0;exitDy=0;entryX=0;entryY=0.5;entryDx=0;entryDy=0;" edge="1" parent="1" source="hW3wx3vpGXbbpo8IUKIQ-1" target="hW3wx3vpGXbbpo8IUKIQ-19">
          <mxGeometry relative="1" as="geometry" />
        </mxCell>
        <mxCell id="hW3wx3vpGXbbpo8IUKIQ-23" value="GND" style="edgeLabel;html=1;align=center;verticalAlign=middle;resizable=0;points=[];" vertex="1" connectable="0" parent="hW3wx3vpGXbbpo8IUKIQ-21">
          <mxGeometry x="-0.8684" y="1" relative="1" as="geometry">
            <mxPoint as="offset" />
          </mxGeometry>
        </mxCell>
        <mxCell id="hW3wx3vpGXbbpo8IUKIQ-43" style="edgeStyle=orthogonalEdgeStyle;rounded=0;orthogonalLoop=1;jettySize=auto;html=1;exitX=0;exitY=0;exitDx=0;exitDy=0;" edge="1" parent="1" source="hW3wx3vpGXbbpo8IUKIQ-1">
          <mxGeometry relative="1" as="geometry">
            <mxPoint x="650" y="310" as="targetPoint" />
            <Array as="points">
              <mxPoint x="840" y="310" />
            </Array>
          </mxGeometry>
        </mxCell>
        <mxCell id="hW3wx3vpGXbbpo8IUKIQ-44" value="ULT" style="edgeLabel;html=1;align=center;verticalAlign=middle;resizable=0;points=[];" vertex="1" connectable="0" parent="hW3wx3vpGXbbpo8IUKIQ-43">
          <mxGeometry x="0.4762" relative="1" as="geometry">
            <mxPoint x="105" as="offset" />
          </mxGeometry>
        </mxCell>
        <mxCell id="hW3wx3vpGXbbpo8IUKIQ-45" value="IN" style="edgeLabel;html=1;align=center;verticalAlign=middle;resizable=0;points=[];" vertex="1" connectable="0" parent="hW3wx3vpGXbbpo8IUKIQ-43">
          <mxGeometry x="0.7619" y="2" relative="1" as="geometry">
            <mxPoint as="offset" />
          </mxGeometry>
        </mxCell>
        <mxCell id="hW3wx3vpGXbbpo8IUKIQ-1" value="DRV8833" style="rounded=0;whiteSpace=wrap;html=1;" vertex="1" parent="1">
          <mxGeometry x="840" y="330" width="220" height="140" as="geometry" />
        </mxCell>
        <mxCell id="hW3wx3vpGXbbpo8IUKIQ-24" style="edgeStyle=orthogonalEdgeStyle;rounded=0;orthogonalLoop=1;jettySize=auto;html=1;exitX=0.75;exitY=1;exitDx=0;exitDy=0;" edge="1" parent="1" source="hW3wx3vpGXbbpo8IUKIQ-2">
          <mxGeometry relative="1" as="geometry">
            <mxPoint x="680" y="540" as="targetPoint" />
          </mxGeometry>
        </mxCell>
        <mxCell id="hW3wx3vpGXbbpo8IUKIQ-25" value="GND" style="edgeLabel;html=1;align=center;verticalAlign=middle;resizable=0;points=[];" vertex="1" connectable="0" parent="hW3wx3vpGXbbpo8IUKIQ-24">
          <mxGeometry x="-0.7048" y="1" relative="1" as="geometry">
            <mxPoint as="offset" />
          </mxGeometry>
        </mxCell>
        <mxCell id="hW3wx3vpGXbbpo8IUKIQ-26" style="edgeStyle=orthogonalEdgeStyle;rounded=0;orthogonalLoop=1;jettySize=auto;html=1;exitX=1;exitY=0.75;exitDx=0;exitDy=0;" edge="1" parent="1" source="hW3wx3vpGXbbpo8IUKIQ-2">
          <mxGeometry relative="1" as="geometry">
            <mxPoint x="800" y="630" as="targetPoint" />
            <Array as="points">
              <mxPoint x="660" y="440" />
              <mxPoint x="801" y="440" />
            </Array>
          </mxGeometry>
        </mxCell>
        <mxCell id="hW3wx3vpGXbbpo8IUKIQ-27" value="VCC" style="edgeLabel;html=1;align=center;verticalAlign=middle;resizable=0;points=[];" vertex="1" connectable="0" parent="hW3wx3vpGXbbpo8IUKIQ-26">
          <mxGeometry x="-0.8776" y="-1" relative="1" as="geometry">
            <mxPoint x="21" y="1" as="offset" />
          </mxGeometry>
        </mxCell>
        <mxCell id="hW3wx3vpGXbbpo8IUKIQ-2" value="Arduino" style="rounded=0;whiteSpace=wrap;html=1;" vertex="1" parent="1">
          <mxGeometry x="530" y="220" width="120" height="250" as="geometry" />
        </mxCell>
        <mxCell id="hW3wx3vpGXbbpo8IUKIQ-31" style="edgeStyle=orthogonalEdgeStyle;rounded=0;orthogonalLoop=1;jettySize=auto;html=1;exitX=1;exitY=0.25;exitDx=0;exitDy=0;entryX=0;entryY=0.25;entryDx=0;entryDy=0;" edge="1" parent="1" source="hW3wx3vpGXbbpo8IUKIQ-2" target="hW3wx3vpGXbbpo8IUKIQ-1">
          <mxGeometry relative="1" as="geometry">
            <Array as="points">
              <mxPoint x="650" y="365" />
            </Array>
          </mxGeometry>
        </mxCell>
        <mxCell id="hW3wx3vpGXbbpo8IUKIQ-35" value="IN3" style="edgeLabel;html=1;align=center;verticalAlign=middle;resizable=0;points=[];" vertex="1" connectable="0" parent="hW3wx3vpGXbbpo8IUKIQ-31">
          <mxGeometry x="0.4729" y="1" relative="1" as="geometry">
            <mxPoint x="1" as="offset" />
          </mxGeometry>
        </mxCell>
        <mxCell id="hW3wx3vpGXbbpo8IUKIQ-41" value="OUT" style="edgeLabel;html=1;align=center;verticalAlign=middle;resizable=0;points=[];" vertex="1" connectable="0" parent="hW3wx3vpGXbbpo8IUKIQ-31">
          <mxGeometry x="-0.1156" relative="1" as="geometry">
            <mxPoint x="-17" as="offset" />
          </mxGeometry>
        </mxCell>
        <mxCell id="hW3wx3vpGXbbpo8IUKIQ-7" style="edgeStyle=orthogonalEdgeStyle;rounded=0;orthogonalLoop=1;jettySize=auto;html=1;exitX=1;exitY=0.5;exitDx=0;exitDy=0;exitPerimeter=0;entryX=0.25;entryY=0;entryDx=0;entryDy=0;" edge="1" parent="1" source="hW3wx3vpGXbbpo8IUKIQ-3" target="hW3wx3vpGXbbpo8IUKIQ-1">
          <mxGeometry relative="1" as="geometry" />
        </mxCell>
        <mxCell id="hW3wx3vpGXbbpo8IUKIQ-14" value="OUT2" style="edgeLabel;html=1;align=center;verticalAlign=middle;resizable=0;points=[];" vertex="1" connectable="0" parent="hW3wx3vpGXbbpo8IUKIQ-7">
          <mxGeometry x="0.3455" y="3" relative="1" as="geometry">
            <mxPoint x="-10" y="52" as="offset" />
          </mxGeometry>
        </mxCell>
        <mxCell id="hW3wx3vpGXbbpo8IUKIQ-3" value="" style="shape=mxgraph.electrical.electro-mechanical.motor_2;html=1;shadow=0;dashed=0;align=center;fontSize=30;strokeWidth=1;" vertex="1" parent="1">
          <mxGeometry x="840" y="110" width="100" height="60" as="geometry" />
        </mxCell>
        <mxCell id="hW3wx3vpGXbbpo8IUKIQ-4" value="" style="shape=mxgraph.electrical.electro-mechanical.motor_2;html=1;shadow=0;dashed=0;align=center;fontSize=30;strokeWidth=1;" vertex="1" parent="1">
          <mxGeometry x="1030" y="110" width="100" height="60" as="geometry" />
        </mxCell>
        <mxCell id="hW3wx3vpGXbbpo8IUKIQ-5" style="edgeStyle=orthogonalEdgeStyle;rounded=0;orthogonalLoop=1;jettySize=auto;html=1;entryX=0;entryY=0.5;entryDx=0;entryDy=0;entryPerimeter=0;" edge="1" parent="1" source="hW3wx3vpGXbbpo8IUKIQ-1" target="hW3wx3vpGXbbpo8IUKIQ-3">
          <mxGeometry relative="1" as="geometry">
            <Array as="points">
              <mxPoint x="860" y="250" />
              <mxPoint x="820" y="250" />
              <mxPoint x="820" y="140" />
            </Array>
          </mxGeometry>
        </mxCell>
        <mxCell id="hW3wx3vpGXbbpo8IUKIQ-15" value="OUT1" style="edgeLabel;html=1;align=center;verticalAlign=middle;resizable=0;points=[];" vertex="1" connectable="0" parent="hW3wx3vpGXbbpo8IUKIQ-5">
          <mxGeometry x="-0.8" y="2" relative="1" as="geometry">
            <mxPoint as="offset" />
          </mxGeometry>
        </mxCell>
        <mxCell id="hW3wx3vpGXbbpo8IUKIQ-9" style="edgeStyle=orthogonalEdgeStyle;rounded=0;orthogonalLoop=1;jettySize=auto;html=1;exitX=0.5;exitY=0;exitDx=0;exitDy=0;entryX=0;entryY=0.5;entryDx=0;entryDy=0;entryPerimeter=0;" edge="1" parent="1" source="hW3wx3vpGXbbpo8IUKIQ-1" target="hW3wx3vpGXbbpo8IUKIQ-4">
          <mxGeometry relative="1" as="geometry">
            <Array as="points">
              <mxPoint x="980" y="330" />
              <mxPoint x="980" y="140" />
            </Array>
          </mxGeometry>
        </mxCell>
        <mxCell id="hW3wx3vpGXbbpo8IUKIQ-16" value="OUT3" style="edgeLabel;html=1;align=center;verticalAlign=middle;resizable=0;points=[];" vertex="1" connectable="0" parent="hW3wx3vpGXbbpo8IUKIQ-9">
          <mxGeometry x="-0.5852" relative="1" as="geometry">
            <mxPoint as="offset" />
          </mxGeometry>
        </mxCell>
        <mxCell id="hW3wx3vpGXbbpo8IUKIQ-10" style="edgeStyle=orthogonalEdgeStyle;rounded=0;orthogonalLoop=1;jettySize=auto;html=1;exitX=1;exitY=0.5;exitDx=0;exitDy=0;exitPerimeter=0;entryX=0.859;entryY=0;entryDx=0;entryDy=0;entryPerimeter=0;" edge="1" parent="1" source="hW3wx3vpGXbbpo8IUKIQ-4" target="hW3wx3vpGXbbpo8IUKIQ-1">
          <mxGeometry relative="1" as="geometry" />
        </mxCell>
        <mxCell id="hW3wx3vpGXbbpo8IUKIQ-17" value="OUT4" style="edgeLabel;html=1;align=center;verticalAlign=middle;resizable=0;points=[];" vertex="1" connectable="0" parent="hW3wx3vpGXbbpo8IUKIQ-10">
          <mxGeometry x="0.8369" y="-1" relative="1" as="geometry">
            <mxPoint as="offset" />
          </mxGeometry>
        </mxCell>
        <mxCell id="hW3wx3vpGXbbpo8IUKIQ-20" style="edgeStyle=orthogonalEdgeStyle;rounded=0;orthogonalLoop=1;jettySize=auto;html=1;exitX=1;exitY=0.5;exitDx=0;exitDy=0;entryX=0.75;entryY=1;entryDx=0;entryDy=0;" edge="1" parent="1" source="hW3wx3vpGXbbpo8IUKIQ-19" target="hW3wx3vpGXbbpo8IUKIQ-1">
          <mxGeometry relative="1" as="geometry" />
        </mxCell>
        <mxCell id="hW3wx3vpGXbbpo8IUKIQ-22" value="VCC" style="edgeLabel;html=1;align=center;verticalAlign=middle;resizable=0;points=[];" vertex="1" connectable="0" parent="hW3wx3vpGXbbpo8IUKIQ-20">
          <mxGeometry x="0.8247" relative="1" as="geometry">
            <mxPoint as="offset" />
          </mxGeometry>
        </mxCell>
        <mxCell id="hW3wx3vpGXbbpo8IUKIQ-19" value="" style="pointerEvents=1;verticalLabelPosition=bottom;shadow=0;dashed=0;align=center;html=1;verticalAlign=top;shape=mxgraph.electrical.miscellaneous.batteryStack;" vertex="1" parent="1">
          <mxGeometry x="700" y="600" width="100" height="60" as="geometry" />
        </mxCell>
        <mxCell id="hW3wx3vpGXbbpo8IUKIQ-28" value="OUT" style="edgeStyle=orthogonalEdgeStyle;rounded=0;orthogonalLoop=1;jettySize=auto;html=1;exitX=1;exitY=0.5;exitDx=0;exitDy=0;entryX=-0.014;entryY=0.607;entryDx=0;entryDy=0;entryPerimeter=0;" edge="1" parent="1" source="hW3wx3vpGXbbpo8IUKIQ-2" target="hW3wx3vpGXbbpo8IUKIQ-1">
          <mxGeometry x="-0.2994" relative="1" as="geometry">
            <Array as="points">
              <mxPoint x="650" y="415" />
            </Array>
            <mxPoint as="offset" />
          </mxGeometry>
        </mxCell>
        <mxCell id="hW3wx3vpGXbbpo8IUKIQ-33" value="IN1" style="edgeLabel;html=1;align=center;verticalAlign=middle;resizable=0;points=[];" vertex="1" connectable="0" parent="hW3wx3vpGXbbpo8IUKIQ-28">
          <mxGeometry x="0.5305" y="-2" relative="1" as="geometry">
            <mxPoint as="offset" />
          </mxGeometry>
        </mxCell>
        <mxCell id="hW3wx3vpGXbbpo8IUKIQ-29" style="edgeStyle=orthogonalEdgeStyle;rounded=0;orthogonalLoop=1;jettySize=auto;html=1;entryX=-0.005;entryY=0.414;entryDx=0;entryDy=0;entryPerimeter=0;" edge="1" parent="1" source="hW3wx3vpGXbbpo8IUKIQ-2" target="hW3wx3vpGXbbpo8IUKIQ-1">
          <mxGeometry relative="1" as="geometry">
            <Array as="points">
              <mxPoint x="745" y="390" />
              <mxPoint x="745" y="388" />
            </Array>
          </mxGeometry>
        </mxCell>
        <mxCell id="hW3wx3vpGXbbpo8IUKIQ-34" value="IN2" style="edgeLabel;html=1;align=center;verticalAlign=middle;resizable=0;points=[];" vertex="1" connectable="0" parent="hW3wx3vpGXbbpo8IUKIQ-29">
          <mxGeometry x="0.4353" y="-3" relative="1" as="geometry">
            <mxPoint as="offset" />
          </mxGeometry>
        </mxCell>
        <mxCell id="hW3wx3vpGXbbpo8IUKIQ-38" value="OUT" style="edgeLabel;html=1;align=center;verticalAlign=middle;resizable=0;points=[];" vertex="1" connectable="0" parent="hW3wx3vpGXbbpo8IUKIQ-29">
          <mxGeometry x="-0.2247" y="2" relative="1" as="geometry">
            <mxPoint x="-54" as="offset" />
          </mxGeometry>
        </mxCell>
        <mxCell id="hW3wx3vpGXbbpo8IUKIQ-32" style="edgeStyle=orthogonalEdgeStyle;rounded=0;orthogonalLoop=1;jettySize=auto;html=1;exitX=1;exitY=0.25;exitDx=0;exitDy=0;entryX=-0.018;entryY=0.114;entryDx=0;entryDy=0;entryPerimeter=0;" edge="1" parent="1" source="hW3wx3vpGXbbpo8IUKIQ-2" target="hW3wx3vpGXbbpo8IUKIQ-1">
          <mxGeometry relative="1" as="geometry">
            <Array as="points">
              <mxPoint x="650" y="346" />
            </Array>
          </mxGeometry>
        </mxCell>
        <mxCell id="hW3wx3vpGXbbpo8IUKIQ-36" value="IN4" style="edgeLabel;html=1;align=center;verticalAlign=middle;resizable=0;points=[];" vertex="1" connectable="0" parent="hW3wx3vpGXbbpo8IUKIQ-32">
          <mxGeometry x="0.4614" y="1" relative="1" as="geometry">
            <mxPoint x="1" as="offset" />
          </mxGeometry>
        </mxCell>
        <mxCell id="hW3wx3vpGXbbpo8IUKIQ-42" value="OUT" style="edgeLabel;html=1;align=center;verticalAlign=middle;resizable=0;points=[];" vertex="1" connectable="0" parent="hW3wx3vpGXbbpo8IUKIQ-32">
          <mxGeometry x="-0.2666" y="3" relative="1" as="geometry">
            <mxPoint x="-8" as="offset" />
          </mxGeometry>
        </mxCell>
        <mxCell id="hW3wx3vpGXbbpo8IUKIQ-46" value="" style="pointerEvents=1;verticalLabelPosition=bottom;shadow=0;dashed=0;align=center;html=1;verticalAlign=top;shape=mxgraph.electrical.miscellaneous.surge_protector_2;" vertex="1" parent="1">
          <mxGeometry x="855" y="70" width="70" height="24" as="geometry" />
        </mxCell>
        <mxCell id="hW3wx3vpGXbbpo8IUKIQ-47" value="" style="pointerEvents=1;verticalLabelPosition=bottom;shadow=0;dashed=0;align=center;html=1;verticalAlign=top;shape=mxgraph.electrical.miscellaneous.surge_protector_2;" vertex="1" parent="1">
          <mxGeometry x="1045" y="70" width="70" height="24" as="geometry" />
        </mxCell>
        <mxCell id="hW3wx3vpGXbbpo8IUKIQ-48" style="edgeStyle=orthogonalEdgeStyle;rounded=0;orthogonalLoop=1;jettySize=auto;html=1;exitX=0;exitY=0.5;exitDx=0;exitDy=0;entryX=0.75;entryY=0;entryDx=0;entryDy=0;exitPerimeter=0;" edge="1" parent="1" source="hW3wx3vpGXbbpo8IUKIQ-46" target="hW3wx3vpGXbbpo8IUKIQ-2">
          <mxGeometry relative="1" as="geometry" />
        </mxCell>
        <mxCell id="hW3wx3vpGXbbpo8IUKIQ-56" value="D0" style="edgeLabel;html=1;align=center;verticalAlign=middle;resizable=0;points=[];" vertex="1" connectable="0" parent="hW3wx3vpGXbbpo8IUKIQ-48">
          <mxGeometry x="-0.1367" y="-2" relative="1" as="geometry">
            <mxPoint x="146" y="2" as="offset" />
          </mxGeometry>
        </mxCell>
        <mxCell id="hW3wx3vpGXbbpo8IUKIQ-66" value="IN" style="edgeLabel;html=1;align=center;verticalAlign=middle;resizable=0;points=[];" vertex="1" connectable="0" parent="hW3wx3vpGXbbpo8IUKIQ-48">
          <mxGeometry x="0.8552" y="-3" relative="1" as="geometry">
            <mxPoint as="offset" />
          </mxGeometry>
        </mxCell>
        <mxCell id="hW3wx3vpGXbbpo8IUKIQ-49" style="edgeStyle=orthogonalEdgeStyle;rounded=0;orthogonalLoop=1;jettySize=auto;html=1;exitX=0;exitY=0.5;exitDx=0;exitDy=0;entryX=0.5;entryY=0;entryDx=0;entryDy=0;exitPerimeter=0;" edge="1" parent="1" source="hW3wx3vpGXbbpo8IUKIQ-47" target="hW3wx3vpGXbbpo8IUKIQ-2">
          <mxGeometry relative="1" as="geometry">
            <Array as="points">
              <mxPoint x="1045" y="50" />
              <mxPoint x="590" y="50" />
            </Array>
          </mxGeometry>
        </mxCell>
        <mxCell id="hW3wx3vpGXbbpo8IUKIQ-57" value="D0" style="edgeLabel;html=1;align=center;verticalAlign=middle;resizable=0;points=[];" vertex="1" connectable="0" parent="hW3wx3vpGXbbpo8IUKIQ-49">
          <mxGeometry x="0.8478" y="-4" relative="1" as="geometry">
            <mxPoint x="444" y="-120" as="offset" />
          </mxGeometry>
        </mxCell>
        <mxCell id="hW3wx3vpGXbbpo8IUKIQ-65" value="IN" style="edgeLabel;html=1;align=center;verticalAlign=middle;resizable=0;points=[];" vertex="1" connectable="0" parent="hW3wx3vpGXbbpo8IUKIQ-49">
          <mxGeometry x="0.9269" y="2" relative="1" as="geometry">
            <mxPoint as="offset" />
          </mxGeometry>
        </mxCell>
        <mxCell id="hW3wx3vpGXbbpo8IUKIQ-50" style="edgeStyle=orthogonalEdgeStyle;rounded=0;orthogonalLoop=1;jettySize=auto;html=1;exitX=0.25;exitY=0;exitDx=0;exitDy=0;entryX=1;entryY=0.5;entryDx=0;entryDy=0;entryPerimeter=0;" edge="1" parent="1" source="hW3wx3vpGXbbpo8IUKIQ-2" target="hW3wx3vpGXbbpo8IUKIQ-46">
          <mxGeometry relative="1" as="geometry">
            <Array as="points">
              <mxPoint x="560" y="30" />
              <mxPoint x="945" y="30" />
              <mxPoint x="945" y="82" />
            </Array>
          </mxGeometry>
        </mxCell>
        <mxCell id="hW3wx3vpGXbbpo8IUKIQ-58" value="VCC" style="edgeLabel;html=1;align=center;verticalAlign=middle;resizable=0;points=[];" vertex="1" connectable="0" parent="hW3wx3vpGXbbpo8IUKIQ-50">
          <mxGeometry x="0.9196" y="2" relative="1" as="geometry">
            <mxPoint as="offset" />
          </mxGeometry>
        </mxCell>
        <mxCell id="hW3wx3vpGXbbpo8IUKIQ-64" value="GND" style="edgeLabel;html=1;align=center;verticalAlign=middle;resizable=0;points=[];" vertex="1" connectable="0" parent="hW3wx3vpGXbbpo8IUKIQ-50">
          <mxGeometry x="-0.9227" y="-2" relative="1" as="geometry">
            <mxPoint as="offset" />
          </mxGeometry>
        </mxCell>
        <mxCell id="hW3wx3vpGXbbpo8IUKIQ-55" value="" style="endArrow=classic;html=1;rounded=0;entryX=1;entryY=0.5;entryDx=0;entryDy=0;entryPerimeter=0;" edge="1" parent="1" target="hW3wx3vpGXbbpo8IUKIQ-47">
          <mxGeometry width="50" height="50" relative="1" as="geometry">
            <mxPoint x="940" y="30" as="sourcePoint" />
            <mxPoint x="1130" y="30" as="targetPoint" />
            <Array as="points">
              <mxPoint x="1115" y="30" />
            </Array>
          </mxGeometry>
        </mxCell>
        <mxCell id="hW3wx3vpGXbbpo8IUKIQ-59" value="VCC" style="edgeLabel;html=1;align=center;verticalAlign=middle;resizable=0;points=[];" vertex="1" connectable="0" parent="hW3wx3vpGXbbpo8IUKIQ-55">
          <mxGeometry x="0.8062" y="1" relative="1" as="geometry">
            <mxPoint as="offset" />
          </mxGeometry>
        </mxCell>
        <mxCell id="hW3wx3vpGXbbpo8IUKIQ-60" value="" style="endArrow=classic;html=1;rounded=0;" edge="1" parent="1">
          <mxGeometry width="50" height="50" relative="1" as="geometry">
            <mxPoint x="540" y="220" as="sourcePoint" />
            <mxPoint x="1080" y="60" as="targetPoint" />
            <Array as="points">
              <mxPoint x="540" y="20" />
              <mxPoint x="1080" y="20" />
            </Array>
          </mxGeometry>
        </mxCell>
        <mxCell id="hW3wx3vpGXbbpo8IUKIQ-61" value="GND" style="edgeLabel;html=1;align=center;verticalAlign=middle;resizable=0;points=[];" vertex="1" connectable="0" parent="hW3wx3vpGXbbpo8IUKIQ-60">
          <mxGeometry x="0.9538" y="2" relative="1" as="geometry">
            <mxPoint as="offset" />
          </mxGeometry>
        </mxCell>
        <mxCell id="hW3wx3vpGXbbpo8IUKIQ-67" value="VCCA" style="edgeLabel;html=1;align=center;verticalAlign=middle;resizable=0;points=[];" vertex="1" connectable="0" parent="hW3wx3vpGXbbpo8IUKIQ-60">
          <mxGeometry x="-0.941" y="4" relative="1" as="geometry">
            <mxPoint y="-17" as="offset" />
          </mxGeometry>
        </mxCell>
        <mxCell id="hW3wx3vpGXbbpo8IUKIQ-62" value="" style="endArrow=classic;html=1;rounded=0;" edge="1" parent="1">
          <mxGeometry width="50" height="50" relative="1" as="geometry">
            <mxPoint x="890" y="30" as="sourcePoint" />
            <mxPoint x="890" y="60" as="targetPoint" />
          </mxGeometry>
        </mxCell>
        <mxCell id="hW3wx3vpGXbbpo8IUKIQ-63" value="GND" style="edgeLabel;html=1;align=center;verticalAlign=middle;resizable=0;points=[];" vertex="1" connectable="0" parent="hW3wx3vpGXbbpo8IUKIQ-62">
          <mxGeometry x="-0.1333" y="2" relative="1" as="geometry">
            <mxPoint as="offset" />
          </mxGeometry>
        </mxCell>
        <mxCell id="hW3wx3vpGXbbpo8IUKIQ-72" style="edgeStyle=orthogonalEdgeStyle;rounded=0;orthogonalLoop=1;jettySize=auto;html=1;exitX=1;exitY=0.25;exitDx=0;exitDy=0;entryX=1;entryY=0.25;entryDx=0;entryDy=0;" edge="1" parent="1" target="hW3wx3vpGXbbpo8IUKIQ-68">
          <mxGeometry relative="1" as="geometry">
            <mxPoint x="410" y="650" as="sourcePoint" />
            <Array as="points">
              <mxPoint x="410" y="203" />
            </Array>
          </mxGeometry>
        </mxCell>
        <mxCell id="hW3wx3vpGXbbpo8IUKIQ-74" value="VCC" style="edgeLabel;html=1;align=center;verticalAlign=middle;resizable=0;points=[];" vertex="1" connectable="0" parent="hW3wx3vpGXbbpo8IUKIQ-72">
          <mxGeometry x="-0.9069" y="4" relative="1" as="geometry">
            <mxPoint x="46" y="412" as="offset" />
          </mxGeometry>
        </mxCell>
        <mxCell id="hW3wx3vpGXbbpo8IUKIQ-86" value="VCC" style="edgeLabel;html=1;align=center;verticalAlign=middle;resizable=0;points=[];" vertex="1" connectable="0" parent="hW3wx3vpGXbbpo8IUKIQ-72">
          <mxGeometry x="-0.9459" y="2" relative="1" as="geometry">
            <mxPoint x="-48" y="-436" as="offset" />
          </mxGeometry>
        </mxCell>
        <mxCell id="hW3wx3vpGXbbpo8IUKIQ-107" value="VCCA" style="edgeLabel;html=1;align=center;verticalAlign=middle;resizable=0;points=[];" vertex="1" connectable="0" parent="hW3wx3vpGXbbpo8IUKIQ-72">
          <mxGeometry x="-0.8145" y="1" relative="1" as="geometry">
            <mxPoint as="offset" />
          </mxGeometry>
        </mxCell>
        <mxCell id="hW3wx3vpGXbbpo8IUKIQ-73" style="edgeStyle=orthogonalEdgeStyle;rounded=0;orthogonalLoop=1;jettySize=auto;html=1;exitX=1;exitY=0.5;exitDx=0;exitDy=0;" edge="1" parent="1">
          <mxGeometry relative="1" as="geometry">
            <mxPoint x="390" y="645" as="targetPoint" />
            <mxPoint x="340" y="220" as="sourcePoint" />
          </mxGeometry>
        </mxCell>
        <mxCell id="hW3wx3vpGXbbpo8IUKIQ-75" value="GND" style="edgeLabel;html=1;align=center;verticalAlign=middle;resizable=0;points=[];" vertex="1" connectable="0" parent="hW3wx3vpGXbbpo8IUKIQ-73">
          <mxGeometry x="-0.8577" y="1" relative="1" as="geometry">
            <mxPoint x="16" y="371" as="offset" />
          </mxGeometry>
        </mxCell>
        <mxCell id="hW3wx3vpGXbbpo8IUKIQ-87" value="GND" style="edgeLabel;html=1;align=center;verticalAlign=middle;resizable=0;points=[];" vertex="1" connectable="0" parent="hW3wx3vpGXbbpo8IUKIQ-73">
          <mxGeometry x="-0.9326" y="-1" relative="1" as="geometry">
            <mxPoint as="offset" />
          </mxGeometry>
        </mxCell>
        <mxCell id="hW3wx3vpGXbbpo8IUKIQ-68" value="HC-SR04" style="rounded=0;whiteSpace=wrap;html=1;" vertex="1" parent="1">
          <mxGeometry x="250" y="180" width="90" height="90" as="geometry" />
        </mxCell>
        <mxCell id="hW3wx3vpGXbbpo8IUKIQ-70" value="HC-SR04" style="rounded=0;whiteSpace=wrap;html=1;" vertex="1" parent="1">
          <mxGeometry x="250" y="310" width="90" height="90" as="geometry" />
        </mxCell>
        <mxCell id="hW3wx3vpGXbbpo8IUKIQ-71" value="HC-SR04" style="rounded=0;whiteSpace=wrap;html=1;" vertex="1" parent="1">
          <mxGeometry x="250" y="430" width="90" height="90" as="geometry" />
        </mxCell>
        <mxCell id="hW3wx3vpGXbbpo8IUKIQ-76" value="" style="endArrow=classic;html=1;rounded=0;" edge="1" parent="1">
          <mxGeometry width="50" height="50" relative="1" as="geometry">
            <mxPoint x="410" y="470" as="sourcePoint" />
            <mxPoint x="340" y="470" as="targetPoint" />
          </mxGeometry>
        </mxCell>
        <mxCell id="hW3wx3vpGXbbpo8IUKIQ-91" value="VCC" style="edgeLabel;html=1;align=center;verticalAlign=middle;resizable=0;points=[];" vertex="1" connectable="0" parent="hW3wx3vpGXbbpo8IUKIQ-76">
          <mxGeometry x="-0.6" y="-1" relative="1" as="geometry">
            <mxPoint x="-36" y="1" as="offset" />
          </mxGeometry>
        </mxCell>
        <mxCell id="hW3wx3vpGXbbpo8IUKIQ-77" value="" style="endArrow=classic;html=1;rounded=0;" edge="1" parent="1">
          <mxGeometry width="50" height="50" relative="1" as="geometry">
            <mxPoint x="340" y="450" as="sourcePoint" />
            <mxPoint x="390" y="450" as="targetPoint" />
          </mxGeometry>
        </mxCell>
        <mxCell id="hW3wx3vpGXbbpo8IUKIQ-90" value="GND" style="edgeLabel;html=1;align=center;verticalAlign=middle;resizable=0;points=[];" vertex="1" connectable="0" parent="hW3wx3vpGXbbpo8IUKIQ-77">
          <mxGeometry x="-0.32" y="-3" relative="1" as="geometry">
            <mxPoint as="offset" />
          </mxGeometry>
        </mxCell>
        <mxCell id="hW3wx3vpGXbbpo8IUKIQ-78" value="" style="endArrow=classic;html=1;rounded=0;" edge="1" parent="1">
          <mxGeometry width="50" height="50" relative="1" as="geometry">
            <mxPoint x="410" y="350" as="sourcePoint" />
            <mxPoint x="340" y="350" as="targetPoint" />
          </mxGeometry>
        </mxCell>
        <mxCell id="hW3wx3vpGXbbpo8IUKIQ-89" value="VCC" style="edgeLabel;html=1;align=center;verticalAlign=middle;resizable=0;points=[];" vertex="1" connectable="0" parent="hW3wx3vpGXbbpo8IUKIQ-78">
          <mxGeometry x="-0.3714" relative="1" as="geometry">
            <mxPoint x="-28" as="offset" />
          </mxGeometry>
        </mxCell>
        <mxCell id="hW3wx3vpGXbbpo8IUKIQ-79" value="" style="endArrow=classic;html=1;rounded=0;" edge="1" parent="1">
          <mxGeometry width="50" height="50" relative="1" as="geometry">
            <mxPoint x="340" y="330" as="sourcePoint" />
            <mxPoint x="390" y="330" as="targetPoint" />
          </mxGeometry>
        </mxCell>
        <mxCell id="hW3wx3vpGXbbpo8IUKIQ-88" value="GND" style="edgeLabel;html=1;align=center;verticalAlign=middle;resizable=0;points=[];" vertex="1" connectable="0" parent="hW3wx3vpGXbbpo8IUKIQ-79">
          <mxGeometry x="-0.36" y="-2" relative="1" as="geometry">
            <mxPoint as="offset" />
          </mxGeometry>
        </mxCell>
        <mxCell id="hW3wx3vpGXbbpo8IUKIQ-80" value="" style="endArrow=classic;html=1;rounded=0;entryX=0.25;entryY=1;entryDx=0;entryDy=0;" edge="1" parent="1" target="hW3wx3vpGXbbpo8IUKIQ-2">
          <mxGeometry width="50" height="50" relative="1" as="geometry">
            <mxPoint x="340" y="510" as="sourcePoint" />
            <mxPoint x="560" y="510" as="targetPoint" />
            <Array as="points">
              <mxPoint x="560" y="510" />
            </Array>
          </mxGeometry>
        </mxCell>
        <mxCell id="hW3wx3vpGXbbpo8IUKIQ-100" value="ECHO" style="edgeLabel;html=1;align=center;verticalAlign=middle;resizable=0;points=[];" vertex="1" connectable="0" parent="hW3wx3vpGXbbpo8IUKIQ-80">
          <mxGeometry x="-0.8077" y="-2" relative="1" as="geometry">
            <mxPoint as="offset" />
          </mxGeometry>
        </mxCell>
        <mxCell id="hW3wx3vpGXbbpo8IUKIQ-106" value="IN" style="edgeLabel;html=1;align=center;verticalAlign=middle;resizable=0;points=[];" vertex="1" connectable="0" parent="hW3wx3vpGXbbpo8IUKIQ-80">
          <mxGeometry x="0.2308" y="-1" relative="1" as="geometry">
            <mxPoint as="offset" />
          </mxGeometry>
        </mxCell>
        <mxCell id="hW3wx3vpGXbbpo8IUKIQ-81" value="" style="endArrow=classic;html=1;rounded=0;" edge="1" parent="1">
          <mxGeometry width="50" height="50" relative="1" as="geometry">
            <mxPoint x="440" y="370" as="sourcePoint" />
            <mxPoint x="340" y="490" as="targetPoint" />
            <Array as="points">
              <mxPoint x="440" y="490" />
            </Array>
          </mxGeometry>
        </mxCell>
        <mxCell id="hW3wx3vpGXbbpo8IUKIQ-99" value="TRIG" style="edgeLabel;html=1;align=center;verticalAlign=middle;resizable=0;points=[];" vertex="1" connectable="0" parent="hW3wx3vpGXbbpo8IUKIQ-81">
          <mxGeometry x="-0.7727" y="1" relative="1" as="geometry">
            <mxPoint x="-81" y="95" as="offset" />
          </mxGeometry>
        </mxCell>
        <mxCell id="hW3wx3vpGXbbpo8IUKIQ-82" value="" style="endArrow=classic;html=1;rounded=0;entryX=-0.025;entryY=0.688;entryDx=0;entryDy=0;entryPerimeter=0;" edge="1" parent="1" target="hW3wx3vpGXbbpo8IUKIQ-2">
          <mxGeometry width="50" height="50" relative="1" as="geometry">
            <mxPoint x="340" y="390" as="sourcePoint" />
            <mxPoint x="390" y="340" as="targetPoint" />
          </mxGeometry>
        </mxCell>
        <mxCell id="hW3wx3vpGXbbpo8IUKIQ-98" value="ECHO" style="edgeLabel;html=1;align=center;verticalAlign=middle;resizable=0;points=[];" vertex="1" connectable="0" parent="hW3wx3vpGXbbpo8IUKIQ-82">
          <mxGeometry x="-0.7543" y="2" relative="1" as="geometry">
            <mxPoint as="offset" />
          </mxGeometry>
        </mxCell>
        <mxCell id="hW3wx3vpGXbbpo8IUKIQ-104" value="IN" style="edgeLabel;html=1;align=center;verticalAlign=middle;resizable=0;points=[];" vertex="1" connectable="0" parent="hW3wx3vpGXbbpo8IUKIQ-82">
          <mxGeometry x="0.6579" y="-1" relative="1" as="geometry">
            <mxPoint as="offset" />
          </mxGeometry>
        </mxCell>
        <mxCell id="hW3wx3vpGXbbpo8IUKIQ-83" value="" style="endArrow=classic;html=1;rounded=0;" edge="1" parent="1">
          <mxGeometry width="50" height="50" relative="1" as="geometry">
            <mxPoint x="440" y="240" as="sourcePoint" />
            <mxPoint x="340" y="370" as="targetPoint" />
            <Array as="points">
              <mxPoint x="440" y="370" />
            </Array>
          </mxGeometry>
        </mxCell>
        <mxCell id="hW3wx3vpGXbbpo8IUKIQ-97" value="TRIG" style="edgeLabel;html=1;align=center;verticalAlign=middle;resizable=0;points=[];" vertex="1" connectable="0" parent="hW3wx3vpGXbbpo8IUKIQ-83">
          <mxGeometry x="-0.7579" y="-1" relative="1" as="geometry">
            <mxPoint x="-69" y="102" as="offset" />
          </mxGeometry>
        </mxCell>
        <mxCell id="hW3wx3vpGXbbpo8IUKIQ-84" value="" style="endArrow=classic;html=1;rounded=0;entryX=0;entryY=0.16;entryDx=0;entryDy=0;entryPerimeter=0;" edge="1" parent="1" target="hW3wx3vpGXbbpo8IUKIQ-2">
          <mxGeometry width="50" height="50" relative="1" as="geometry">
            <mxPoint x="340" y="260" as="sourcePoint" />
            <mxPoint x="390" y="210" as="targetPoint" />
          </mxGeometry>
        </mxCell>
        <mxCell id="hW3wx3vpGXbbpo8IUKIQ-93" value="ECHO" style="edgeLabel;html=1;align=center;verticalAlign=middle;resizable=0;points=[];" vertex="1" connectable="0" parent="hW3wx3vpGXbbpo8IUKIQ-84">
          <mxGeometry x="-0.7368" y="-2" relative="1" as="geometry">
            <mxPoint as="offset" />
          </mxGeometry>
        </mxCell>
        <mxCell id="hW3wx3vpGXbbpo8IUKIQ-102" value="IN" style="edgeLabel;html=1;align=center;verticalAlign=middle;resizable=0;points=[];" vertex="1" connectable="0" parent="hW3wx3vpGXbbpo8IUKIQ-84">
          <mxGeometry x="0.5895" y="1" relative="1" as="geometry">
            <mxPoint as="offset" />
          </mxGeometry>
        </mxCell>
        <mxCell id="hW3wx3vpGXbbpo8IUKIQ-85" value="" style="endArrow=classic;html=1;rounded=0;entryX=-0.017;entryY=0.088;entryDx=0;entryDy=0;entryPerimeter=0;exitX=-0.017;exitY=0.088;exitDx=0;exitDy=0;exitPerimeter=0;" edge="1" parent="1" source="hW3wx3vpGXbbpo8IUKIQ-2">
          <mxGeometry width="50" height="50" relative="1" as="geometry">
            <mxPoint x="390" y="190" as="sourcePoint" />
            <mxPoint x="340" y="240" as="targetPoint" />
          </mxGeometry>
        </mxCell>
        <mxCell id="hW3wx3vpGXbbpo8IUKIQ-92" value="TRIG" style="edgeLabel;html=1;align=center;verticalAlign=middle;resizable=0;points=[];" vertex="1" connectable="0" parent="hW3wx3vpGXbbpo8IUKIQ-85">
          <mxGeometry x="-0.7235" y="1" relative="1" as="geometry">
            <mxPoint x="-132" as="offset" />
          </mxGeometry>
        </mxCell>
        <mxCell id="hW3wx3vpGXbbpo8IUKIQ-101" value="OUT" style="edgeLabel;html=1;align=center;verticalAlign=middle;resizable=0;points=[];" vertex="1" connectable="0" parent="hW3wx3vpGXbbpo8IUKIQ-85">
          <mxGeometry x="0.5962" y="-1" relative="1" as="geometry">
            <mxPoint x="122" y="1" as="offset" />
          </mxGeometry>
        </mxCell>
        <mxCell id="hW3wx3vpGXbbpo8IUKIQ-95" value="" style="endArrow=classic;html=1;rounded=0;" edge="1" parent="1">
          <mxGeometry width="50" height="50" relative="1" as="geometry">
            <mxPoint x="540" y="170" as="sourcePoint" />
            <mxPoint x="410" y="200" as="targetPoint" />
            <Array as="points">
              <mxPoint x="410" y="170" />
            </Array>
          </mxGeometry>
        </mxCell>
        <mxCell id="hW3wx3vpGXbbpo8IUKIQ-96" value="" style="endArrow=classic;html=1;rounded=0;" edge="1" parent="1">
          <mxGeometry width="50" height="50" relative="1" as="geometry">
            <mxPoint x="560" y="150" as="sourcePoint" />
            <mxPoint x="390" y="220" as="targetPoint" />
            <Array as="points">
              <mxPoint x="390" y="150" />
            </Array>
          </mxGeometry>
        </mxCell>
      </root>
    </mxGraphModel>
  </diagram>
</mxfile>
